<svg xmlns="http://www.w3.org/2000/svg" width="512" height="512" viewBox="0 0 512 512">
  <defs>
    <linearGradient id="bg" x1="0" y1="0" x2="1" y2="1">
      <stop offset="0" stop-color="#f9c79a"/>
      <stop offset="1" stop-color="#ef9d63"/>
    </linearGradient>
    <linearGradient id="leaf" x1="0" y1="0" x2="0" y2="1">
      <stop offset="0" stop-color="#bfe0bd"/>
      <stop offset="1" stop-color="#8bbf8a"/>
    </linearGradient>
  </defs>
  <rect width="512" height="512" rx="112" fill="url(#bg)"/>
  <!-- sprout: stem + two leaves growing upward -->
  <path d="M256 372 C256 300 256 250 256 196" fill="none" stroke="#fff" stroke-width="22" stroke-linecap="round"/>
  <path d="M256 250 C210 250 176 218 168 168 C220 166 256 200 256 250 Z" fill="url(#leaf)"/>
  <path d="M256 226 C300 222 336 188 346 140 C296 140 262 176 256 226 Z" fill="url(#leaf)"/>
  <!-- soft heart base / pot -->
  <path d="M198 372 h116 a16 16 0 0 1 16 16 l-10 44 a26 26 0 0 1 -25 22 h-78 a26 26 0 0 1 -25 -22 l-10 -44 a16 16 0 0 1 16 -16 Z" fill="#fff" opacity="0.95"/>
  <!-- checkmark in pot -->
  <path d="M222 408 l16 16 l34 -34" fill="none" stroke="#ef9d63" stroke-width="14" stroke-linecap="round" stroke-linejoin="round"/>
</svg>
